<svg width="56" height="56" viewBox="0 0 56 56" fill="none" xmlns="http://www.w3.org/2000/svg">
<rect width="56" height="56" rx="28" fill="#FED9DF"/>
<path d="M25.9643 34.1864C25.7 34.1864 25.4465 34.0827 25.2596 33.8981C25.0728 33.7135 24.9678 33.4631 24.9678 33.202V26.39C24.9678 26.128 25.0731 25.8768 25.2607 25.6915C25.4482 25.5063 25.7025 25.4022 25.9677 25.4022C26.233 25.4022 26.4873 25.5063 26.6748 25.6915C26.8624 25.8768 26.9677 26.128 26.9677 26.39V33.1981C26.9683 33.3283 26.9426 33.4573 26.8924 33.5776C26.8421 33.6979 26.7681 33.8072 26.6748 33.8991C26.5815 33.9911 26.4706 34.0638 26.3487 34.1131C26.2267 34.1624 26.096 34.1873 25.9643 34.1864Z" fill="#F9405F"/>
<path d="M29.9643 34.1864C29.7 34.1864 29.4465 34.0827 29.2596 33.8981C29.0728 33.7135 28.9678 33.4631 28.9678 33.202V26.39C28.9678 26.128 29.0731 25.8768 29.2607 25.6915C29.4482 25.5063 29.7025 25.4022 29.9677 25.4022C30.233 25.4022 30.4873 25.5063 30.6748 25.6915C30.8624 25.8768 30.9677 26.128 30.9677 26.39V33.1981C30.9683 33.3283 30.9426 33.4573 30.8924 33.5776C30.8421 33.6979 30.7681 33.8072 30.6748 33.8991C30.5815 33.9911 30.4706 34.0638 30.3487 34.1131C30.2267 34.1624 30.096 34.1873 29.9643 34.1864Z" fill="#F9405F"/>
<path d="M37.3962 20.4335H31.8089V18.4844C31.8089 18.2233 31.7039 17.9729 31.5171 17.7883C31.3302 17.6037 31.0767 17.5 30.8124 17.5H25.1833C24.919 17.5 24.6655 17.6037 24.4787 17.7883C24.2918 17.9729 24.1868 18.2233 24.1868 18.4844V20.4335H18.5307C18.2535 20.4419 17.9904 20.5565 17.7972 20.7533C17.6041 20.95 17.4961 21.2132 17.4961 21.4873C17.4961 21.7613 17.6041 22.0246 17.7972 22.2213C17.9904 22.418 18.2535 22.5327 18.5307 22.5411H20.2945L21.0917 35.1698C21.1506 36.0708 21.5539 36.9161 22.22 37.5344C22.886 38.1527 23.7651 38.4979 24.6791 38.5H31.2429C32.1569 38.4979 33.036 38.1527 33.702 37.5344C34.3681 36.9161 34.7714 36.0708 34.8303 35.1698L35.6275 22.5411H37.3962C37.5391 22.5454 37.6813 22.5213 37.8146 22.4703C37.9478 22.4193 38.0693 22.3423 38.1719 22.2441C38.2745 22.1458 38.356 22.0282 38.4117 21.8982C38.4674 21.7682 38.4961 21.6284 38.4961 21.4873C38.4961 21.3461 38.4674 21.2064 38.4117 21.0764C38.356 20.9464 38.2745 20.8288 38.1719 20.7305C38.0693 20.6322 37.9478 20.5553 37.8146 20.5043C37.6813 20.4532 37.5391 20.4292 37.3962 20.4335ZM26.1818 19.4757H29.809V20.3193H26.1818V19.4757ZM32.6131 35.034C32.5904 35.3771 32.4365 35.699 32.1827 35.9343C31.9289 36.1697 31.5941 36.3011 31.2459 36.3019H24.682C24.3338 36.3011 23.9988 36.1696 23.7449 35.934C23.4911 35.6984 23.3374 35.3763 23.3149 35.033L22.5296 22.6297H33.3983L32.6131 35.034Z" fill="#F9405F"/>
</svg>
