<svg width="16" height="17" viewBox="0 0 16 17" fill="none" xmlns="http://www.w3.org/2000/svg">
<path d="M3.50016 3.16667C3.04016 3.16667 2.66683 3.54 2.66683 4V5.83333C2.66683 6.01014 2.59659 6.17971 2.47157 6.30474C2.34654 6.42976 2.17697 6.5 2.00016 6.5C1.82335 6.5 1.65378 6.42976 1.52876 6.30474C1.40373 6.17971 1.3335 6.01014 1.3335 5.83333V4C1.3335 3.42536 1.56177 2.87426 1.9681 2.46793C2.37443 2.06161 2.92553 1.83333 3.50016 1.83333H5.3335C5.51031 1.83333 5.67988 1.90357 5.8049 2.02859C5.92992 2.15362 6.00016 2.32319 6.00016 2.5C6.00016 2.67681 5.92992 2.84638 5.8049 2.9714C5.67988 3.09643 5.51031 3.16667 5.3335 3.16667H3.50016ZM3.50016 13.8333C3.04016 13.8333 2.66683 13.46 2.66683 13V11.1667C2.66683 10.9899 2.59659 10.8203 2.47157 10.6953C2.34654 10.5702 2.17697 10.5 2.00016 10.5C1.82335 10.5 1.65378 10.5702 1.52876 10.6953C1.40373 10.8203 1.3335 10.9899 1.3335 11.1667V13C1.3335 13.2845 1.38954 13.5663 1.49842 13.8291C1.60731 14.092 1.7669 14.3309 1.9681 14.5321C2.16929 14.7333 2.40814 14.8929 2.67102 15.0017C2.93389 15.1106 3.21563 15.1667 3.50016 15.1667H5.3335C5.51031 15.1667 5.67988 15.0964 5.8049 14.9714C5.92992 14.8464 6.00016 14.6768 6.00016 14.5C6.00016 14.3232 5.92992 14.1536 5.8049 14.0286C5.67988 13.9036 5.51031 13.8333 5.3335 13.8333H3.50016ZM13.3335 4C13.3335 3.54 12.9602 3.16667 12.5002 3.16667H10.6668C10.49 3.16667 10.3204 3.09643 10.1954 2.9714C10.0704 2.84638 10.0002 2.67681 10.0002 2.5C10.0002 2.32319 10.0704 2.15362 10.1954 2.02859C10.3204 1.90357 10.49 1.83333 10.6668 1.83333H12.5002C12.7847 1.83333 13.0664 1.88937 13.3293 1.99826C13.5922 2.10714 13.831 2.26674 14.0322 2.46793C14.2334 2.66913 14.393 2.90798 14.5019 3.17085C14.6108 3.43372 14.6668 3.71547 14.6668 4V5.83333C14.6668 6.01014 14.5966 6.17971 14.4716 6.30474C14.3465 6.42976 14.177 6.5 14.0002 6.5C13.8234 6.5 13.6538 6.42976 13.5288 6.30474C13.4037 6.17971 13.3335 6.01014 13.3335 5.83333V4ZM12.5002 13.8333C12.9602 13.8333 13.3335 13.46 13.3335 13V11.1667C13.3335 10.9899 13.4037 10.8203 13.5288 10.6953C13.6538 10.5702 13.8234 10.5 14.0002 10.5C14.177 10.5 14.3465 10.5702 14.4716 10.6953C14.5966 10.8203 14.6668 10.9899 14.6668 11.1667V13C14.6668 13.2845 14.6108 13.5663 14.5019 13.8291C14.393 14.092 14.2334 14.3309 14.0322 14.5321C13.831 14.7333 13.5922 14.8929 13.3293 15.0017C13.0664 15.1106 12.7847 15.1667 12.5002 15.1667H10.6668C10.49 15.1667 10.3204 15.0964 10.1954 14.9714C10.0704 14.8464 10.0002 14.6768 10.0002 14.5C10.0002 14.3232 10.0704 14.1536 10.1954 14.0286C10.3204 13.9036 10.49 13.8333 10.6668 13.8333H12.5002ZM4.66683 5.16667H6.66683V7.16667H4.66683V5.16667ZM9.3335 7.16667H6.66683V9.83333H4.66683V11.8333H6.66683V9.83333H9.3335V11.8333H11.3335V9.83333H9.3335V7.16667ZM9.3335 7.16667V5.16667H11.3335V7.16667H9.3335Z" fill="black"/>
</svg>
