<svg width="300" height="300" viewBox="0 0 300 300" fill="none" xmlns="http://www.w3.org/2000/svg">
<path d="M205.2 38.25C185.64 30.99 161.868 33.99 143.46 43.182C134.202 47.808 128.034 54.792 120.66 61.782C110.31 71.538 101.322 72.582 88.2598 76.068C50.2318 86.268 47.0998 128.058 56.6938 154.596C68.3638 186.87 102.096 207.342 136.752 203.196C160.092 200.412 180.612 192.696 196.5 178.596C208.908 167.574 207.93 154.362 207.24 138.996C206.718 127.242 205.296 114.294 209.91 103.098C214.11 92.856 223.902 96.294 230.31 88.566C246.666 68.85 221.664 44.364 205.2 38.25Z" fill="#407BFF"/>
<path opacity="0.9" d="M205.2 38.25C185.64 30.99 161.868 33.99 143.46 43.182C134.202 47.808 128.034 54.792 120.66 61.782C110.31 71.538 101.322 72.582 88.2598 76.068C50.2318 86.268 47.0998 128.058 56.6938 154.596C68.3638 186.87 102.096 207.342 136.752 203.196C160.092 200.412 180.612 192.696 196.5 178.596C208.908 167.574 207.93 154.362 207.24 138.996C206.718 127.242 205.296 114.294 209.91 103.098C214.11 92.856 223.902 96.294 230.31 88.566C246.666 68.85 221.664 44.364 205.2 38.25Z" fill="white"/>
<path d="M150 256.536C214.249 256.536 266.334 253.495 266.334 249.744C266.334 245.993 214.249 242.952 150 242.952C85.7505 242.952 33.666 245.993 33.666 249.744C33.666 253.495 85.7505 256.536 150 256.536Z" fill="#F5F5F5"/>
<path d="M155.529 71.6717C157.533 66.3917 158.199 58.9277 149.109 59.6717C141.459 55.1897 133.137 61.7597 135.561 68.4497C136.635 71.4017 137.775 73.0937 134.925 76.2797C132.075 79.4657 137.277 80.1017 135.561 82.8377C132.825 87.2177 136.971 92.2577 144.993 89.7677C150.129 88.1717 157.269 91.0637 157.899 85.8737C158.529 80.6837 154.071 75.5237 155.529 71.6717Z" fill="#263238"/>
<path d="M137.284 242.312C132.898 242.312 133.216 242.246 130.75 242.162C128.644 242.084 128.14 242.348 126.442 242.312C125.026 242.282 125.08 240.926 125.518 239.366C125.734 238.58 126.07 237.626 126.376 236.366H133.018C133.545 237.302 134.292 238.096 135.194 238.68C136.096 239.264 137.126 239.621 138.196 239.72C140.572 240.026 139.018 242.312 137.284 242.312Z" fill="#407BFF"/>
<path d="M173.44 242.312C169.132 242.312 167.68 242.03 165.256 241.946C163.174 241.868 162.856 242.312 160.75 242.312C159.352 242.312 159.088 240.74 159.55 239.564C160.046 238.534 160.448 237.462 160.75 236.36H166.69C167.854 238.244 170.842 239.636 174.118 239.87C176.464 240.044 175.168 242.312 173.44 242.312Z" fill="#407BFF"/>
<path d="M162.903 124.826C162.903 124.826 165.213 155.84 164.295 175.532C165.279 194.018 166.695 236.36 166.695 236.36C166.599 237.302 161.619 236.924 160.755 236.36C160.755 236.36 150.021 205.52 152.745 175.532C140.961 144.254 142.275 124.826 142.275 124.826H162.903Z" fill="#263238"/>
<path d="M156.717 124.826C156.717 124.826 146.637 159.83 142.551 177.026C138.261 195.074 132.351 224.372 133.035 236.366C132.009 236.966 128.397 236.996 126.375 236.366C126.375 236.366 119.595 195.2 129.975 177.824C127.629 135.062 139.233 124.832 139.233 124.832L156.717 124.826Z" fill="#263238"/>
<path d="M133.54 233.864C133.556 234.688 133.632 235.51 133.768 236.324C133.781 236.391 133.78 236.461 133.765 236.528C133.75 236.595 133.722 236.658 133.683 236.714C133.643 236.77 133.592 236.818 133.533 236.854C133.475 236.89 133.41 236.914 133.342 236.924C130.9 237.314 127.372 236.75 126.256 236.546C126.152 236.527 126.056 236.477 125.982 236.402C125.908 236.326 125.859 236.23 125.842 236.126L125.476 233.822C125.463 233.747 125.468 233.671 125.488 233.598C125.508 233.526 125.544 233.458 125.594 233.401C125.643 233.344 125.704 233.298 125.773 233.267C125.841 233.236 125.916 233.221 125.992 233.222L133.036 233.354C133.169 233.357 133.297 233.412 133.391 233.507C133.485 233.602 133.538 233.73 133.54 233.864Z" fill="#263238"/>
<path opacity="0.1" d="M133.54 233.864C133.556 234.688 133.632 235.51 133.768 236.324C133.781 236.391 133.78 236.461 133.765 236.528C133.75 236.595 133.722 236.658 133.683 236.714C133.643 236.77 133.592 236.818 133.533 236.854C133.475 236.89 133.41 236.914 133.342 236.924C130.9 237.314 127.372 236.75 126.256 236.546C126.152 236.527 126.056 236.477 125.982 236.402C125.908 236.326 125.859 236.23 125.842 236.126L125.476 233.822C125.463 233.747 125.468 233.671 125.488 233.598C125.508 233.526 125.544 233.458 125.594 233.401C125.643 233.344 125.704 233.298 125.773 233.267C125.841 233.236 125.916 233.221 125.992 233.222L133.036 233.354C133.169 233.357 133.297 233.412 133.391 233.507C133.485 233.602 133.538 233.73 133.54 233.864Z" fill="white"/>
<path d="M167.248 233.774C167.296 234.416 167.386 235.574 167.488 236.408C167.496 236.474 167.491 236.541 167.473 236.606C167.455 236.67 167.425 236.73 167.384 236.783C167.342 236.835 167.291 236.879 167.233 236.911C167.174 236.944 167.11 236.964 167.044 236.972C164.86 237.154 162.664 237.13 160.486 236.9C160.379 236.892 160.277 236.85 160.196 236.779C160.115 236.709 160.059 236.614 160.036 236.51L159.484 234.206C159.467 234.132 159.466 234.056 159.482 233.982C159.498 233.908 159.53 233.839 159.576 233.778C159.622 233.718 159.68 233.669 159.747 233.634C159.814 233.599 159.888 233.579 159.964 233.576L166.72 233.306C166.851 233.299 166.98 233.344 167.079 233.432C167.178 233.519 167.238 233.642 167.248 233.774Z" fill="#263238"/>
<path opacity="0.1" d="M167.248 233.774C167.296 234.416 167.386 235.574 167.488 236.408C167.496 236.474 167.491 236.541 167.473 236.606C167.455 236.67 167.425 236.73 167.384 236.783C167.342 236.835 167.291 236.879 167.233 236.911C167.174 236.944 167.11 236.964 167.044 236.972C164.86 237.154 162.664 237.13 160.486 236.9C160.379 236.892 160.277 236.85 160.196 236.779C160.115 236.709 160.059 236.614 160.036 236.51L159.484 234.206C159.467 234.132 159.466 234.056 159.482 233.982C159.498 233.908 159.53 233.839 159.576 233.778C159.622 233.718 159.68 233.669 159.747 233.634C159.814 233.599 159.888 233.579 159.964 233.576L166.72 233.306C166.851 233.299 166.98 233.344 167.079 233.432C167.178 233.519 167.238 233.642 167.248 233.774Z" fill="white"/>
<path d="M162.111 93.2297L165.897 99.2297L169.689 105.23L171.597 108.23L172.557 109.73C173.01 110.401 173.388 111.119 173.685 111.872C174.089 112.871 174.281 113.944 174.249 115.022C174.227 115.61 174.128 116.193 173.955 116.756C173.783 117.294 173.539 117.807 173.229 118.28C172.694 119.095 171.985 119.781 171.153 120.29C170.792 120.51 170.413 120.698 170.019 120.854C169.827 120.932 169.635 120.998 169.419 121.058L168.753 121.238C168.258 121.431 167.707 121.426 167.215 121.225C166.722 121.024 166.326 120.641 166.108 120.156C165.889 119.671 165.865 119.121 166.04 118.619C166.215 118.117 166.576 117.701 167.049 117.458C167.049 117.416 167.133 117.302 167.181 117.212C167.229 117.122 167.307 117.032 167.361 116.936C167.471 116.765 167.567 116.587 167.649 116.402C167.783 116.15 167.834 115.862 167.793 115.58C167.771 115.519 167.733 115.466 167.684 115.425C167.634 115.384 167.575 115.356 167.511 115.346C167.397 115.346 167.307 115.214 167.127 115.046C166.829 114.774 166.561 114.47 166.329 114.14L165.201 112.694C164.457 111.728 163.737 110.738 163.011 109.754C162.285 108.77 161.583 107.78 160.887 106.754C160.191 105.728 159.495 104.75 158.823 103.754C157.467 101.714 156.171 99.6857 154.923 97.5197C154.456 96.5767 154.36 95.4927 154.653 94.4821C154.947 93.4715 155.61 92.6081 156.51 92.0626C157.41 91.5172 158.482 91.3295 159.513 91.5367C160.545 91.744 161.462 92.331 162.081 93.1817L162.111 93.2297Z" fill="#7F3E3B"/>
<path d="M157.317 88.6937C161.685 89.5157 164.001 93.2237 168.303 100.964C167.307 103.856 160.503 106.616 160.503 106.616C160.503 106.616 150.111 94.3337 157.317 88.6937Z" fill="#407BFF"/>
<path d="M164.217 96.9737C164.349 100.584 164.297 104.199 164.061 107.804C163.881 112.508 163.557 117.134 162.861 124.844H139.227C139.707 118.178 138.927 110.576 134.679 95.5757C134.424 94.7897 134.348 93.9564 134.458 93.1373C134.568 92.3182 134.86 91.5342 135.313 90.8431C135.767 90.1521 136.369 89.5716 137.077 89.1445C137.784 88.7175 138.579 88.4547 139.401 88.3757C140.337 88.2797 141.333 88.2017 142.353 88.1477C145.931 87.8924 149.522 87.8924 153.099 88.1477C154.269 88.2557 155.499 88.3997 156.639 88.5617C158.681 88.8683 160.554 89.8749 161.936 91.4093C163.318 92.9437 164.125 94.9106 164.217 96.9737Z" fill="#407BFF"/>
<path d="M129.916 176.774C134.332 176.606 138.718 176.288 142.816 175.904C143.716 172.208 144.844 167.792 146.086 163.124L129.736 161.924C129.598 166.358 129.64 171.296 129.916 176.774Z" fill="black"/>
<path d="M148.617 163.316C149.709 166.94 151.007 170.784 152.511 174.848C158.475 174.086 162.897 173.348 164.427 173.084C164.511 170.366 164.547 167.468 164.541 164.51L148.617 163.316Z" fill="black"/>
<path d="M164.313 125.342C164.595 119.06 164.313 107.444 164.313 107.444C164.313 107.444 163.665 92.6237 158.913 88.9997C158.871 88.9645 158.822 88.938 158.769 88.9217C157.983 88.6817 157.329 88.4357 157.071 88.6337C156.813 88.8317 161.013 92.1077 161.385 101.072C153.663 101.762 143.151 100.79 143.151 100.79C143.151 100.79 143.223 92.2877 141.459 88.1897C141.426 88.1142 141.368 88.0519 141.295 88.0128C141.222 87.9737 141.139 87.9599 141.057 87.9737L140.043 88.1237C139.978 88.1326 139.916 88.1584 139.864 88.1984C139.812 88.2384 139.771 88.2913 139.746 88.3518C139.721 88.4124 139.711 88.4785 139.719 88.5437C139.727 88.609 139.752 88.671 139.791 88.7237C141.693 91.9757 140.517 104.084 137.493 109.01C137.745 111.896 138.183 124.01 138.183 124.01C138.183 124.01 127.197 136.88 128.073 168.782C141.639 175.94 165.627 170.666 165.627 170.666C165.627 170.666 164.031 131.618 164.313 125.342Z" fill="#263238"/>
<path d="M143.109 76.0517C144.045 79.5077 145.191 85.8497 142.941 88.1537C142.941 88.1537 146.217 87.6617 153.177 91.9637C155.187 89.0777 153.693 88.1537 153.693 88.1537C149.769 87.2357 149.655 84.3737 150.093 81.6857L143.109 76.0517Z" fill="#7F3E3B"/>
<path d="M151.713 91.0997C149.421 91.4237 148.713 94.8857 148.713 94.8857C148.713 94.8857 143.217 90.9737 141.459 88.2497C142.15 87.8577 142.821 87.4312 143.469 86.9717C143.469 86.9717 150.375 89.7737 151.713 91.0997Z" fill="white"/>
<path d="M153.892 90.7277C153.892 90.7277 155.872 91.2617 156.586 94.0457C157.108 89.0057 154.756 88.1477 154.756 88.1477C154.126 87.7951 153.389 87.6883 152.686 87.8477C153.19 88.1131 153.586 88.5457 153.806 89.0711C154.026 89.5966 154.056 90.1823 153.892 90.7277Z" fill="white"/>
<path opacity="0.2" d="M145.972 78.3737L150.124 81.7097C150.004 82.3388 149.94 82.9773 149.932 83.6177C148.444 83.4017 146.302 81.7817 146.026 80.2397C145.894 79.6262 145.876 78.9937 145.972 78.3737Z" fill="black"/>
<path d="M140.152 69.1097C141.202 74.6957 141.532 77.0717 144.718 79.7537C149.518 83.7797 156.118 81.6497 156.718 75.9557C157.318 70.8317 155.476 62.5637 149.722 60.7157C148.499 60.2792 147.182 60.1773 145.907 60.4206C144.632 60.6639 143.445 61.2435 142.469 62.0995C141.493 62.9555 140.764 64.0567 140.356 65.2892C139.949 66.5217 139.878 67.8407 140.152 69.1097Z" fill="#7F3E3B"/>
<path d="M152.091 61.0097C145.971 58.0097 133.917 61.7477 136.341 68.4377L141.237 71.8397C144.291 71.7137 152.547 68.1257 152.091 61.0097Z" fill="#263238"/>
<path d="M149.001 70.0397C149.067 70.5137 149.367 70.8797 149.673 70.8557C149.979 70.8317 150.165 70.4297 150.093 69.9617C150.021 69.4937 149.727 69.1217 149.427 69.1457C149.127 69.1697 148.929 69.5657 149.001 70.0397Z" fill="#263238"/>
<path d="M154.702 69.7037C154.774 70.1777 155.074 70.5437 155.374 70.5197C155.674 70.4957 155.866 70.0937 155.8 69.6257C155.734 69.1577 155.434 68.7857 155.128 68.8097C154.822 68.8337 154.618 69.2297 154.702 69.7037Z" fill="#263238"/>
<path d="M155.001 68.8457L156.063 68.4377C156.063 68.4377 155.619 69.3737 155.001 68.8457Z" fill="#263238"/>
<path d="M153.231 70.5737C153.799 71.623 154.498 72.595 155.313 73.4657C155.096 73.6564 154.839 73.7949 154.56 73.8708C154.281 73.9467 153.989 73.958 153.705 73.9037L153.231 70.5737Z" fill="#630F0F"/>
<path d="M151.293 75.8717C151.555 75.8929 151.818 75.8929 152.079 75.8717C152.098 75.8712 152.115 75.8666 152.132 75.8585C152.148 75.8503 152.163 75.8387 152.174 75.8245C152.185 75.8102 152.194 75.7936 152.198 75.7758C152.202 75.7581 152.203 75.7396 152.199 75.7217C152.193 75.6846 152.175 75.6508 152.146 75.6266C152.117 75.6023 152.081 75.5892 152.043 75.5897C151.451 75.6397 150.855 75.5538 150.301 75.3386C149.746 75.1233 149.249 74.7844 148.845 74.3477C148.819 74.3224 148.783 74.3083 148.746 74.3083C148.709 74.3083 148.674 74.3224 148.647 74.3477C148.622 74.3734 148.608 74.4079 148.608 74.4437C148.608 74.4795 148.622 74.5139 148.647 74.5397C149.338 75.2903 150.279 75.7638 151.293 75.8717Z" fill="#263238"/>
<path d="M139.33 72.6617C139.458 73.1904 139.694 73.6865 140.025 74.1184C140.356 74.5503 140.773 74.9084 141.25 75.1697C142.45 75.7697 143.302 74.4137 143.17 72.8717C143.056 71.4797 142.288 69.4937 140.98 69.5597C139.672 69.6257 138.952 71.2457 139.33 72.6617Z" fill="#7F3E3B"/>
<path d="M147.364 66.3737C147.4 66.3763 147.436 66.3706 147.469 66.3571C147.502 66.3436 147.532 66.3226 147.556 66.2957C147.775 66.0405 148.055 65.8435 148.369 65.7221C148.683 65.6007 149.022 65.5587 149.356 65.5997C149.39 65.6075 149.426 65.608 149.461 65.6011C149.495 65.5942 149.528 65.5802 149.557 65.5598C149.586 65.5394 149.61 65.5132 149.628 65.4829C149.646 65.4525 149.658 65.4187 149.662 65.3837C149.672 65.3092 149.654 65.2334 149.611 65.172C149.567 65.1106 149.502 65.0683 149.428 65.0537C149.004 64.9901 148.571 65.0349 148.169 65.1839C147.767 65.3329 147.41 65.5812 147.13 65.9057C147.106 65.9336 147.089 65.9659 147.078 66.0006C147.067 66.0354 147.063 66.0719 147.067 66.1082C147.07 66.1444 147.08 66.1797 147.097 66.2118C147.114 66.244 147.138 66.2725 147.166 66.2957C147.192 66.3217 147.222 66.3421 147.257 66.3555C147.291 66.3689 147.327 66.3751 147.364 66.3737Z" fill="#263238"/>
<path d="M156.309 66.9137C156.343 66.9206 156.378 66.9199 156.411 66.9116C156.444 66.9033 156.475 66.8876 156.501 66.8657C156.529 66.843 156.552 66.8151 156.569 66.7834C156.586 66.7517 156.597 66.717 156.6 66.6812C156.603 66.6455 156.6 66.6094 156.589 66.5751C156.578 66.5409 156.561 66.5091 156.537 66.4817C156.273 66.1206 155.93 65.8247 155.533 65.6167C155.137 65.4087 154.699 65.2941 154.251 65.2817C154.216 65.2838 154.181 65.2933 154.149 65.3095C154.118 65.3258 154.089 65.3484 154.067 65.3761C154.044 65.4037 154.028 65.4357 154.018 65.47C154.009 65.5044 154.006 65.5404 154.011 65.5757C154.022 65.6494 154.058 65.7168 154.115 65.7654C154.171 65.814 154.243 65.8404 154.317 65.8397C154.672 65.856 155.018 65.9524 155.33 66.1218C155.642 66.2912 155.911 66.5291 156.117 66.8177C156.141 66.846 156.17 66.8691 156.203 66.8856C156.236 66.9021 156.273 66.9117 156.309 66.9137Z" fill="#263238"/>
<path d="M149.295 69.1817L150.357 68.7737C150.357 68.7737 149.919 69.6977 149.295 69.1817Z" fill="#263238"/>
<path d="M155.721 112.658C155.626 112.656 155.534 112.62 155.463 112.556L145.527 103.25C145.457 103.179 145.417 103.083 145.417 102.983C145.417 102.883 145.457 102.787 145.527 102.716C145.599 102.646 145.695 102.608 145.794 102.608C145.894 102.608 145.99 102.646 146.061 102.716L155.997 112.022C156.053 112.073 156.091 112.141 156.108 112.215C156.125 112.289 156.119 112.366 156.091 112.436C156.063 112.507 156.015 112.567 155.952 112.61C155.889 112.653 155.815 112.676 155.739 112.676L155.721 112.658Z" fill="#407BFF"/>
<path d="M150.034 106.316L148.276 106.148C147.95 106.115 147.621 106.161 147.317 106.282C147.013 106.403 146.743 106.596 146.53 106.844L144.49 109.184C144.088 109.645 143.803 110.196 143.658 110.789C143.513 111.383 143.512 112.003 143.656 112.598L143.836 113.348C146.734 113.828 150.22 112.214 150.22 112.214L151.264 111.866C151.48 111.8 151.682 111.692 151.856 111.548C152.031 111.404 152.175 111.226 152.281 111.026C152.386 110.825 152.451 110.606 152.471 110.38C152.491 110.155 152.466 109.928 152.398 109.712L151.732 107.636C151.607 107.275 151.38 106.958 151.079 106.723C150.777 106.489 150.414 106.347 150.034 106.316Z" fill="#7F3E3B"/>
<path d="M140.025 97.9337L139.713 98.7617L139.371 99.6797C139.155 100.28 138.933 100.922 138.723 101.552C138.303 102.812 137.943 104.09 137.601 105.368C137.259 106.646 137.001 107.93 136.767 109.208C136.533 110.486 136.401 111.764 136.293 113.03L136.209 112.238C136.129 112.02 136.013 111.817 135.867 111.638C135.686 111.412 135.451 111.236 135.183 111.128C134.787 111.008 134.871 111.158 135.129 111.182C135.494 111.22 135.862 111.22 136.227 111.182C136.671 111.146 137.151 111.068 137.643 110.978C138.645 110.798 139.695 110.528 140.757 110.24C141.819 109.952 142.923 109.604 143.961 109.31L144.081 109.274C144.545 109.14 145.04 109.17 145.485 109.358C145.929 109.546 146.296 109.881 146.523 110.307C146.75 110.733 146.824 111.224 146.732 111.697C146.64 112.171 146.389 112.599 146.019 112.91C145.07 113.714 144.067 114.453 143.019 115.124C141.939 115.818 140.81 116.434 139.641 116.966C139.008 117.247 138.359 117.491 137.697 117.698C136.932 117.946 136.141 118.108 135.339 118.178C134.156 118.3 132.961 118.106 131.877 117.614C131.088 117.242 130.4 116.684 129.873 115.988C129.385 115.338 129.036 114.594 128.847 113.804C128.804 113.621 128.778 113.434 128.769 113.246V113.006C128.696 111.405 128.73 109.802 128.871 108.206C128.931 107.408 129.039 106.628 129.141 105.842C129.243 105.056 129.393 104.282 129.555 103.514C129.863 101.98 130.252 100.464 130.719 98.9717C130.959 98.2277 131.199 97.4837 131.487 96.7457C131.625 96.3797 131.763 96.0077 131.919 95.6417C132.075 95.2757 132.225 94.9277 132.435 94.4717C132.927 93.5476 133.745 92.8403 134.731 92.4884C135.717 92.1366 136.799 92.1654 137.764 92.5694C138.73 92.9733 139.51 93.7233 139.951 94.6722C140.393 95.6212 140.464 96.7009 140.151 97.6997L140.025 97.9337Z" fill="#7F3E3B"/>
<path d="M139.18 88.4057C135.328 89.0057 133.78 90.1757 130.63 97.9217C132.064 100.808 138.754 103.574 138.754 103.574C138.754 103.574 142.372 93.5657 139.18 88.4057Z" fill="#407BFF"/>
<path d="M145.575 125.678C147.272 122.701 148.818 119.641 150.207 116.51C152.319 111.674 154.077 105.914 154.077 105.914C154.077 105.914 168.795 105.872 171.477 107.63C169.677 113.81 162.183 128.63 162.183 128.63C162.183 128.63 151.077 128.018 145.575 125.678Z" fill="white"/>
<path d="M160.569 129.53L147.219 128.66C145.875 128.57 145.221 127.568 145.767 126.422L154.875 107.294C155.218 106.692 155.719 106.195 156.324 105.857C156.929 105.518 157.614 105.351 158.307 105.374L171.651 106.244C172.995 106.334 173.649 107.336 173.103 108.482L164.001 127.61C163.658 128.212 163.157 128.708 162.552 129.047C161.947 129.385 161.262 129.552 160.569 129.53Z" fill="#407BFF"/>
<path d="M166.539 115.904L165.879 118.112C165.728 118.551 165.752 119.031 165.947 119.452C166.141 119.874 166.491 120.204 166.923 120.374L167.901 120.734L170.817 114.17L168.159 114.488C167.781 114.541 167.426 114.703 167.139 114.955C166.851 115.206 166.643 115.536 166.539 115.904Z" fill="#7F3E3B"/>
</svg>
