<svg width="300" height="300" viewBox="0 0 300 300" fill="none" xmlns="http://www.w3.org/2000/svg">
<path d="M63.1558 57.6278C55.8958 77.1878 58.8958 100.96 68.0878 119.368C72.7138 128.626 79.6978 134.794 86.6878 142.168C96.4438 152.518 97.4878 161.506 100.974 174.568C111.174 212.596 152.964 215.728 179.502 206.134C211.776 194.464 232.248 160.732 228.102 126.076C225.318 102.736 217.602 82.2158 203.502 66.3278C192.48 53.9198 179.268 54.8978 163.902 55.5878C152.148 56.1098 139.2 57.5318 128.004 52.9178C117.762 48.7178 121.2 38.9258 113.472 32.5178C93.7558 16.1618 69.2698 41.1638 63.1558 57.6278Z" fill="#407BFF"/>
<path opacity="0.9" d="M63.1558 57.6278C55.8958 77.1878 58.8958 100.96 68.0878 119.368C72.7138 128.626 79.6978 134.794 86.6878 142.168C96.4438 152.518 97.4878 161.506 100.974 174.568C111.174 212.596 152.964 215.728 179.502 206.134C211.776 194.464 232.248 160.732 228.102 126.076C225.318 102.736 217.602 82.2158 203.502 66.3278C192.48 53.9198 179.268 54.8978 163.902 55.5878C152.148 56.1098 139.2 57.5318 128.004 52.9178C117.762 48.7178 121.2 38.9258 113.472 32.5178C93.7558 16.1618 69.2698 41.1638 63.1558 57.6278Z" fill="white"/>
<path d="M150 256.536C214.249 256.536 266.334 253.495 266.334 249.744C266.334 245.993 214.249 242.952 150 242.952C85.7505 242.952 33.666 245.993 33.666 249.744C33.666 253.495 85.7505 256.536 150 256.536Z" fill="#F5F5F5"/>
<path d="M157.625 179.986C161.777 155.476 163.505 125.932 163.505 125.932L140.639 125.56C140.639 125.56 143.273 165.388 144.185 182.068C145.133 199.408 146.123 238.948 146.123 238.948H156.629C156.629 238.948 159.947 201.424 157.625 179.986Z" fill="#263238"/>
<path d="M154.985 246.994L155.291 251.884C155.292 252.009 155.269 252.134 155.223 252.25C155.176 252.366 155.107 252.473 155.02 252.562C154.932 252.652 154.828 252.724 154.713 252.773C154.598 252.822 154.474 252.849 154.349 252.85C152.795 252.85 152.093 252.604 149.387 252.562C146.219 252.508 143.519 252.91 139.787 252.85C137.537 252.814 137.843 250.078 139.595 249.616C143.339 248.626 145.139 246.772 146.951 245.686C147.521 243.922 147.377 237.946 147.377 237.946L155.981 238.516C155.981 238.516 155.015 244.438 154.985 246.994Z" fill="#407BFF"/>
<path d="M185.561 251.164L184.469 246.964C184.085 244.408 184.049 238.486 184.049 238.486L175.991 238.69C175.991 238.69 176.825 244.09 176.843 245.992C175.337 247.078 173.843 248.596 170.519 249.592C168.965 250.054 169.217 252.79 171.305 252.826C174.767 252.886 177.215 252.484 180.161 252.538C182.687 252.58 182.987 252.826 184.433 252.826C184.632 252.83 184.829 252.783 185.006 252.691C185.183 252.6 185.335 252.465 185.447 252.3C185.558 252.135 185.628 251.945 185.648 251.747C185.668 251.548 185.638 251.348 185.561 251.164Z" fill="#407BFF"/>
<path d="M146.56 240.334L156.226 240.484C156.418 240.487 156.604 240.42 156.749 240.295C156.894 240.17 156.987 239.996 157.012 239.806L157.426 236.614C157.441 236.506 157.432 236.396 157.401 236.291C157.371 236.187 157.318 236.09 157.247 236.006C157.177 235.923 157.089 235.856 156.991 235.809C156.893 235.761 156.786 235.735 156.676 235.732L146.146 235.402C146.033 235.399 145.92 235.421 145.816 235.466C145.712 235.511 145.619 235.578 145.543 235.663C145.467 235.747 145.411 235.847 145.377 235.955C145.343 236.063 145.334 236.178 145.348 236.29L145.786 239.656C145.811 239.844 145.903 240.016 146.046 240.141C146.188 240.266 146.371 240.334 146.56 240.334Z" fill="#263238"/>
<path opacity="0.1" d="M146.56 240.334L156.226 240.484C156.418 240.487 156.604 240.42 156.749 240.295C156.894 240.17 156.987 239.996 157.012 239.806L157.426 236.614C157.441 236.506 157.432 236.396 157.401 236.291C157.371 236.187 157.318 236.09 157.247 236.006C157.177 235.923 157.089 235.856 156.991 235.809C156.893 235.761 156.786 235.735 156.676 235.732L146.146 235.402C146.033 235.399 145.92 235.421 145.816 235.466C145.712 235.511 145.619 235.578 145.543 235.663C145.467 235.747 145.411 235.847 145.377 235.955C145.343 236.063 145.334 236.178 145.348 236.29L145.786 239.656C145.811 239.844 145.903 240.016 146.046 240.141C146.188 240.266 146.371 240.334 146.56 240.334Z" fill="white"/>
<path d="M176.746 179.29C173.638 154.648 173.41 138.178 169.96 126.034L149.146 125.722C149.146 125.722 158.542 164.818 162.874 181.102C167.206 197.386 175.078 238.504 175.078 238.504L185.278 238.63C185.278 238.63 182.542 198.358 176.746 179.29Z" fill="#263238"/>
<path d="M175.103 240.334L184.763 240.484C184.963 240.488 185.156 240.414 185.304 240.279C185.451 240.144 185.541 239.958 185.555 239.758L185.765 236.566C185.772 236.461 185.758 236.356 185.724 236.257C185.689 236.157 185.635 236.066 185.565 235.988C185.494 235.91 185.408 235.847 185.313 235.803C185.217 235.759 185.114 235.735 185.009 235.732L174.491 235.408C174.374 235.405 174.258 235.429 174.151 235.476C174.044 235.524 173.949 235.595 173.873 235.684C173.797 235.773 173.742 235.878 173.712 235.991C173.682 236.105 173.677 236.223 173.699 236.338L174.347 239.698C174.381 239.875 174.475 240.034 174.612 240.15C174.75 240.265 174.923 240.331 175.103 240.334Z" fill="#263238"/>
<path opacity="0.1" d="M175.103 240.334L184.763 240.484C184.963 240.488 185.156 240.414 185.304 240.279C185.451 240.144 185.541 239.958 185.555 239.758L185.765 236.566C185.772 236.461 185.758 236.356 185.724 236.257C185.689 236.157 185.635 236.066 185.565 235.988C185.494 235.91 185.408 235.847 185.313 235.803C185.217 235.759 185.114 235.735 185.009 235.732L174.491 235.408C174.374 235.405 174.258 235.429 174.151 235.476C174.044 235.524 173.949 235.595 173.873 235.684C173.797 235.773 173.742 235.878 173.712 235.991C173.682 236.105 173.677 236.223 173.699 236.338L174.347 239.698C174.381 239.875 174.475 240.034 174.612 240.15C174.75 240.265 174.923 240.331 175.103 240.334Z" fill="white"/>
<path d="M146.525 88.0601C145.109 90.7841 143.645 93.4901 142.163 96.1781C140.681 98.8661 139.163 101.578 137.663 104.224L135.395 108.226L134.831 109.228L134.549 109.726L134.399 109.984L134.189 110.32C133.575 111.32 132.796 112.208 131.885 112.948C130.76 113.878 129.375 114.436 127.919 114.544C126.597 114.625 125.28 114.328 124.121 113.686C123.215 113.19 122.395 112.552 121.691 111.796C121.369 111.455 121.069 111.094 120.791 110.716C120.508 110.331 120.245 109.93 120.005 109.516C119.776 109.137 119.676 108.693 119.722 108.252C119.767 107.811 119.955 107.397 120.256 107.072C120.558 106.748 120.957 106.53 121.394 106.452C121.83 106.375 122.28 106.441 122.675 106.642L123.179 106.894C123.389 107.002 123.713 107.212 123.983 107.356C124.253 107.5 124.553 107.662 124.829 107.788C125.308 108.022 125.82 108.182 126.347 108.262C126.773 108.316 127.037 108.202 127.067 108.1C127.074 108.048 127.074 107.996 127.067 107.944C127.088 107.868 127.121 107.795 127.163 107.728C127.346 107.396 127.509 107.054 127.649 106.702L127.721 106.528L127.841 106.276L128.087 105.754L128.585 104.698C129.245 103.302 129.921 101.902 130.613 100.498C131.969 97.7181 133.369 94.9621 134.813 92.2301C136.235 89.4881 137.687 86.7761 139.211 84.0821C139.755 83.1498 140.639 82.4654 141.678 82.1734C142.717 81.8814 143.829 82.0047 144.778 82.5173C145.728 83.0299 146.441 83.8916 146.767 84.9203C147.093 85.949 147.006 87.0642 146.525 88.0301V88.0601Z" fill="#FF8B7B"/>
<path d="M146.069 76.4441C140.963 77.8541 135.677 86.5601 135.677 86.5601L143.003 98.3501C143.003 98.3501 146.495 93.7601 150.203 87.9941C154.259 81.7181 152.261 74.7401 146.069 76.4441Z" fill="#407BFF"/>
<path d="M167.453 76.6061C161.729 75.6535 155.923 75.2876 150.125 75.5141C147.107 75.6437 144.242 76.8759 142.073 78.977C139.903 81.0781 138.579 83.9023 138.353 86.9141C137.699 96.2861 138.899 109.66 140.621 125.554L169.949 126.028C170.723 118.078 169.547 102.628 172.979 84.5381C173.147 83.6535 173.137 82.7442 172.949 81.8636C172.761 80.9829 172.399 80.1487 171.884 79.4099C171.37 78.671 170.712 78.0424 169.951 77.561C169.191 77.0795 168.341 76.7549 167.453 76.6061Z" fill="#407BFF"/>
<path d="M161.633 62.3741C160.799 66.3401 159.923 73.6301 162.701 76.4441C160.493 78.4961 157.607 80.8541 152.837 80.7821C148.067 80.7101 148.937 77.4881 150.215 75.8261C154.709 74.9801 154.631 71.6621 153.893 68.5121L161.633 62.3741Z" fill="#FF8B7B"/>
<path d="M153.287 80.7821C153.287 80.7821 155.303 81.4301 156.461 84.3821C160.175 83.3861 164.021 79.5461 164.261 75.8261C163.52 75.5318 162.73 75.3811 161.933 75.3821C161.933 75.3821 159.875 79.0841 153.287 80.7821Z" fill="white"/>
<path d="M150.719 80.4461C150.719 80.4461 148.985 80.3501 147.341 83.9981C143.585 83.1821 148.067 76.4621 149.687 75.5081C150.457 75.2419 151.275 75.1397 152.087 75.2081C152.087 75.2081 148.745 76.4321 150.719 80.4461Z" fill="white"/>
<path opacity="0.2" d="M158.477 64.8821L153.893 68.4821C154.078 69.212 154.199 69.9569 154.253 70.7081C155.969 70.5461 158.339 68.7941 158.543 67.0121C158.648 66.3039 158.625 65.5825 158.477 64.8821Z" fill="black"/>
<path d="M152.147 48.5861C150.413 48.6281 147.347 51.0461 147.347 56.3861C152.891 52.9181 152.147 48.5861 152.147 48.5861Z" fill="#263238"/>
<path d="M162.815 56.3621C162.257 61.7621 162.215 64.9601 159.353 67.6061C155.063 71.5901 148.463 68.8061 147.389 63.2981C146.423 58.3661 147.491 50.3501 152.891 48.4601C154.087 48.0397 155.37 47.9299 156.62 48.1409C157.87 48.3519 159.046 48.8769 160.038 49.6666C161.03 50.4563 161.805 51.4849 162.29 52.656C162.776 53.8271 162.956 55.1023 162.815 56.3621Z" fill="#FF8B7B"/>
<path d="M151.337 61.8281C152.537 61.5821 154.649 62.3261 155.303 63.5561C155.303 63.5561 152.621 62.5121 151.025 62.9141C150.407 62.5901 150.947 61.9181 151.337 61.8281Z" fill="#263238"/>
<path d="M149.237 61.9661C148.984 61.9283 148.725 61.9424 148.477 62.0077C148.229 62.0729 147.997 62.1879 147.795 62.3456C147.593 62.5033 147.425 62.7004 147.302 62.925C147.179 63.1496 147.102 63.397 147.077 63.6521C147.077 63.6521 148.583 62.6201 149.849 62.9201C150.167 62.6021 149.531 62.0201 149.237 61.9661Z" fill="#263238"/>
<path d="M162.983 60.6101C160.457 62.3741 158.999 61.3721 158.957 58.6541C158.921 56.1821 161.699 51.6041 159.959 50.2541C158.219 48.9041 151.235 53.2961 150.269 50.1641C149.789 48.6161 154.595 46.5641 158.765 46.8221C162.821 47.0741 164.387 49.4741 164.291 51.2501C166.247 51.2081 167.603 57.7961 162.983 60.6101Z" fill="#263238"/>
<path d="M164.627 61.4201C164.122 62.6116 163.182 63.5663 161.999 64.0901C160.493 64.6901 159.695 63.2261 160.079 61.5581C160.421 60.0581 161.621 57.9221 163.151 58.0241C164.681 58.1261 165.293 59.8961 164.627 61.4201Z" fill="#FF8B7B"/>
<path d="M154.073 57.2861C154.073 57.7241 153.803 58.0721 153.515 58.0601C153.227 58.0481 153.005 57.6761 153.023 57.2321C153.041 56.7881 153.293 56.4461 153.581 56.4581C153.869 56.4701 154.091 56.8421 154.073 57.2861Z" fill="#263238"/>
<path d="M148.949 56.8961C148.949 57.3401 148.685 57.6881 148.397 57.6701C148.109 57.6521 147.887 57.2861 147.905 56.8481C147.923 56.4101 148.169 56.0561 148.457 56.0741C148.745 56.0921 148.967 56.4581 148.949 56.8961Z" fill="#263238"/>
<path d="M150.947 57.3641C150.947 57.3641 149.843 59.8661 148.685 61.0361C149.435 61.8041 150.779 61.5401 150.779 61.5401L150.947 57.3641Z" fill="#FF5652"/>
<path d="M149.675 63.8381C150.154 63.9672 150.654 63.996 151.145 63.9227C151.635 63.8494 152.105 63.6756 152.525 63.4121C152.552 63.3918 152.571 63.3617 152.576 63.3281C152.582 63.2946 152.574 63.2602 152.555 63.2321C152.543 63.2202 152.529 63.2106 152.514 63.2041C152.499 63.1976 152.482 63.1943 152.465 63.1943C152.448 63.1943 152.432 63.1976 152.416 63.2041C152.401 63.2106 152.387 63.2202 152.375 63.2321C151.905 63.5149 151.374 63.6824 150.827 63.721C150.279 63.7596 149.731 63.6681 149.225 63.4541C149.209 63.4474 149.193 63.4439 149.175 63.4439C149.158 63.4438 149.141 63.4473 149.126 63.454C149.11 63.4608 149.096 63.4706 149.084 63.483C149.072 63.4954 149.063 63.5101 149.057 63.5261C149.05 63.5418 149.047 63.5587 149.047 63.5758C149.047 63.5929 149.05 63.6099 149.057 63.6256C149.064 63.6413 149.074 63.6555 149.086 63.6673C149.098 63.6791 149.113 63.6882 149.129 63.6941C149.308 63.7538 149.49 63.8019 149.675 63.8381Z" fill="#263238"/>
<path d="M156.616 55.9181C156.662 55.9128 156.705 55.8963 156.742 55.8701C156.798 55.8303 156.836 55.7705 156.848 55.7034C156.86 55.6363 156.846 55.567 156.808 55.5101C156.584 55.1595 156.279 54.8677 155.919 54.6589C155.559 54.4502 155.154 54.3306 154.738 54.3101C154.705 54.3109 154.671 54.3183 154.64 54.332C154.609 54.3457 154.581 54.3654 154.558 54.3899C154.534 54.4144 154.516 54.4433 154.504 54.4749C154.491 54.5065 154.486 54.5402 154.486 54.5741C154.488 54.6431 154.516 54.7087 154.566 54.7569C154.615 54.8051 154.681 54.8321 154.75 54.8321C155.078 54.8499 155.397 54.9452 155.68 55.1099C155.964 55.2747 156.205 55.5044 156.382 55.7801C156.405 55.8222 156.439 55.8572 156.48 55.8815C156.522 55.9058 156.569 55.9185 156.616 55.9181Z" fill="#263238"/>
<path d="M147.347 54.9161C147.389 54.9247 147.433 54.9232 147.475 54.9117C147.516 54.9003 147.555 54.8792 147.587 54.8501C147.816 54.6122 148.1 54.4333 148.413 54.3289C148.727 54.2244 149.061 54.1974 149.387 54.2501C149.42 54.2581 149.454 54.2595 149.488 54.2542C149.522 54.2489 149.554 54.237 149.583 54.2191C149.612 54.2013 149.637 54.1779 149.657 54.1502C149.677 54.1226 149.691 54.0913 149.699 54.0581C149.714 53.9914 149.702 53.9216 149.666 53.8634C149.63 53.8052 149.573 53.7632 149.507 53.7461C149.102 53.673 148.686 53.6986 148.293 53.8208C147.9 53.943 147.543 54.1582 147.251 54.4481C147.227 54.4721 147.208 54.5006 147.195 54.532C147.182 54.5634 147.175 54.5971 147.175 54.6311C147.175 54.6651 147.182 54.6988 147.195 54.7302C147.208 54.7616 147.227 54.7902 147.251 54.8141C147.272 54.8571 147.305 54.8927 147.347 54.9161Z" fill="#263238"/>
<path d="M156.467 155.806C157.475 159.88 158.489 163.972 159.467 167.806C158.999 171.274 158.495 174.76 157.937 178.156C153.336 178.857 148.689 179.206 144.035 179.2C143.681 173.056 143.177 164.836 142.661 156.682L156.467 155.806Z" fill="black"/>
<path d="M176.069 173.764C171.462 175.39 166.73 176.64 161.921 177.502C161.177 174.628 160.337 171.328 159.455 167.818C160.013 163.648 160.511 159.502 160.949 155.518L174.119 154.684C174.659 160.396 175.259 166.726 176.069 173.764Z" fill="black"/>
<path d="M138.605 111.982C138.575 105.694 137.921 96.6701 137.921 96.6701C141.701 90.4301 142.391 78.6701 146.879 75.9221C147.368 75.6877 147.898 75.5473 148.439 75.5081C148.486 75.5058 148.534 75.518 148.574 75.5432C148.614 75.5683 148.646 75.6052 148.665 75.6489C148.684 75.6926 148.689 75.741 148.68 75.7876C148.67 75.8343 148.647 75.877 148.613 75.9101C147.413 77.0381 144.821 80.3141 144.185 88.1141C151.871 89.1101 162.419 88.5581 162.419 88.5581C162.419 88.5581 163.019 80.1101 164.957 76.1381C164.988 76.0769 165.038 76.0275 165.1 75.9972C165.162 75.9669 165.231 75.9574 165.299 75.9701L166.601 76.2221C166.645 76.2302 166.687 76.2481 166.724 76.2747C166.76 76.3013 166.79 76.3357 166.812 76.3755C166.833 76.4153 166.845 76.4594 166.847 76.5046C166.849 76.5497 166.841 76.5947 166.823 76.6361C164.063 83.4101 164.423 96.4361 171.467 96.9941C171.101 99.8681 171.095 112.09 171.095 112.09C171.095 112.09 179.585 137.332 177.431 169.168C163.595 175.768 139.943 171.304 139.943 171.304C139.943 171.304 138.641 118.27 138.605 111.982Z" fill="#263238"/>
<path d="M122.747 106.702L119.567 103.042L116.033 108.178C116.033 108.178 118.049 111.472 121.313 109.594L122.747 106.702Z" fill="#FF8B7B"/>
<path d="M115.013 102.658L114.089 105.376C114.006 105.566 113.981 105.776 114.015 105.98C114.049 106.185 114.141 106.375 114.281 106.528L116.081 108.178L119.615 103.042L116.615 101.71C116.009 101.464 115.265 101.92 115.013 102.658Z" fill="#FF8B7B"/>
<path d="M146.519 95.4221C146.519 95.4221 147.371 94.7501 146.993 93.2201C147.251 93.1241 147.593 93.5201 147.593 93.5201C147.593 93.5201 147.497 95.3021 146.519 95.4221Z" fill="#263238"/>
<path d="M149.885 97.5521C149.63 96.9307 149.22 96.3844 148.695 95.9646C148.171 95.5448 147.548 95.2652 146.885 95.1521C146.573 94.5565 146.113 94.0505 145.55 93.682C144.988 93.3135 144.34 93.0946 143.669 93.0461C141.335 92.8601 138.617 100.378 142.181 101.692C144.545 104.68 150.803 99.7181 149.885 97.5521Z" fill="#407BFF"/>
<path opacity="0.3" d="M149.885 97.5521C149.63 96.9307 149.22 96.3844 148.695 95.9646C148.171 95.5448 147.548 95.2652 146.885 95.1521C146.573 94.5565 146.113 94.0505 145.55 93.682C144.988 93.3135 144.34 93.0946 143.669 93.0461C141.335 92.8601 138.617 100.378 142.181 101.692C144.545 104.68 150.803 99.7181 149.885 97.5521Z" fill="white"/>
<path d="M141.995 101.554H141.725L141.923 101.638L141.887 101.74H142.049V101.866H142.169L142.211 102.004L142.301 101.92L142.403 102.088V101.842C142.293 101.713 142.153 101.614 141.995 101.554Z" fill="#263238"/>
<path d="M137.621 92.4821C137.621 92.4821 137.381 91.4261 135.821 91.1141C135.821 90.8321 136.355 90.6821 136.355 90.6821C136.355 90.6821 137.933 91.5521 137.621 92.4821Z" fill="#263238"/>
<path d="M140.993 90.3581C140.321 90.3253 139.653 90.4647 139.05 90.7629C138.447 91.0611 137.931 91.5083 137.549 92.0621C136.878 92.0903 136.225 92.2891 135.651 92.6397C135.078 92.9903 134.604 93.4813 134.273 94.0661C133.103 96.0941 138.731 101.776 141.473 99.1121C145.139 98.2361 143.333 90.4481 140.993 90.3581Z" fill="#407BFF"/>
<path opacity="0.6" d="M140.993 90.3581C140.321 90.3253 139.653 90.4647 139.05 90.7629C138.447 91.0611 137.931 91.5083 137.549 92.0621C136.878 92.0903 136.225 92.2891 135.651 92.6397C135.078 92.9903 134.604 93.4813 134.273 94.0661C133.103 96.0941 138.731 101.776 141.473 99.1121C145.139 98.2361 143.333 90.4481 140.993 90.3581Z" fill="white"/>
<path d="M141.227 99.2021L141.125 99.4481L141.287 99.3041L141.365 99.3881L141.449 99.2501L141.575 99.2921L141.605 99.1721H141.749L141.707 99.0521H141.905L141.683 98.9441C141.51 98.9859 141.352 99.0752 141.227 99.2021Z" fill="#263238"/>
<path d="M151.097 92.9861C151.097 92.9861 150.467 92.1041 151.253 90.7421C151.031 90.5741 150.575 90.8561 150.575 90.8561C150.575 90.8561 150.191 92.6021 151.097 92.9861Z" fill="#263238"/>
<path d="M147.269 94.1021C147.69 93.5786 148.238 93.1711 148.861 92.9181C149.483 92.6651 150.16 92.5749 150.827 92.6561C151.293 92.1714 151.874 91.813 152.516 91.6146C153.159 91.4163 153.841 91.3844 154.499 91.5221C156.797 91.9901 157.325 99.9701 153.533 100.24C150.425 102.43 145.787 95.9201 147.269 94.1021Z" fill="#407BFF"/>
<path opacity="0.5" d="M147.269 94.1021C147.69 93.5786 148.238 93.1711 148.861 92.9181C149.483 92.6651 150.16 92.5749 150.827 92.6561C151.293 92.1714 151.874 91.813 152.516 91.6146C153.159 91.4163 153.841 91.3844 154.499 91.5221C156.797 91.9901 157.325 99.9701 153.533 100.24C150.425 102.43 145.787 95.9201 147.269 94.1021Z" fill="white"/>
<path d="M153.743 100.138L153.995 100.228H153.779V100.336H153.617L153.569 100.456L153.461 100.402L153.377 100.522L153.317 100.414L153.173 100.552L153.239 100.312C153.387 100.208 153.562 100.148 153.743 100.138Z" fill="#263238"/>
<path d="M160.457 92.6321C160.457 92.6321 160.985 91.6841 162.551 91.8101C162.611 91.5401 162.161 91.2461 162.161 91.2461C162.161 91.2461 160.421 91.6481 160.457 92.6321Z" fill="#263238"/>
<path d="M157.811 89.6561C158.465 89.812 159.067 90.1318 159.563 90.5853C160.058 91.0388 160.43 91.6111 160.643 92.2481C161.281 92.4613 161.854 92.833 162.308 93.3284C162.763 93.8238 163.084 94.4266 163.241 95.0801C163.799 97.3601 156.821 101.254 154.949 97.9421C151.643 96.0761 155.537 89.0921 157.811 89.6561Z" fill="#407BFF"/>
<path opacity="0.7" d="M157.811 89.6561C158.465 89.812 159.067 90.1318 159.563 90.5853C160.058 91.0388 160.43 91.6111 160.643 92.2481C161.281 92.4613 161.854 92.833 162.308 93.3284C162.763 93.8238 163.084 94.4266 163.241 95.0801C163.799 97.3601 156.821 101.254 154.949 97.9421C151.643 96.0761 155.537 89.0921 157.811 89.6561Z" fill="white"/>
<path d="M155.147 98.0861V98.3501L155.033 98.1701L154.937 98.2301L154.889 98.0681H154.763V97.9481H154.619L154.691 97.8461L154.505 97.7741L154.757 97.7321C154.917 97.812 155.052 97.9345 155.147 98.0861Z" fill="#263238"/>
<path d="M132.431 91.9181C132.431 91.9181 132.959 90.9701 134.525 91.0961C134.585 90.8201 134.135 90.5321 134.135 90.5321C134.135 90.5321 132.395 90.9221 132.431 91.9181Z" fill="#263238"/>
<path d="M129.785 88.9181C130.439 89.073 131.042 89.3924 131.538 89.8461C132.033 90.2997 132.405 90.8725 132.617 91.5101C133.254 91.7233 133.827 92.095 134.282 92.5904C134.736 93.0858 135.057 93.6886 135.215 94.3421C135.773 96.6161 128.795 100.516 126.923 97.2041C123.617 95.3441 127.511 88.3661 129.785 88.9181Z" fill="#407BFF"/>
<path opacity="0.7" d="M129.785 88.9181C130.439 89.073 131.042 89.3924 131.538 89.8461C132.033 90.2997 132.405 90.8725 132.617 91.5101C133.254 91.7233 133.827 92.095 134.282 92.5904C134.736 93.0858 135.057 93.6886 135.215 94.3421C135.773 96.6161 128.795 100.516 126.923 97.2041C123.617 95.3441 127.511 88.3661 129.785 88.9181Z" fill="white"/>
<path d="M127.109 97.3601V97.6241L126.995 97.4441L126.899 97.4981L126.857 97.3421H126.725V97.2221H126.575L126.647 97.1141L126.461 97.0421L126.713 97.0061C126.875 97.0851 127.012 97.2076 127.109 97.3601Z" fill="#263238"/>
<path d="M139.547 99.8621C139.547 99.8621 138.389 98.9381 138.905 96.8621C138.551 96.7301 138.059 97.2701 138.059 97.2701C138.059 97.2701 138.209 99.7181 139.547 99.8621Z" fill="#263238"/>
<path d="M134.945 102.766C135.299 101.92 135.863 101.178 136.583 100.61C137.303 100.042 138.156 99.6671 139.061 99.5201C139.489 98.709 140.115 98.0202 140.883 97.5184C141.65 97.0166 142.533 96.7185 143.447 96.6521C146.633 96.3941 150.341 106.654 145.475 108.442C142.229 112.486 133.691 105.718 134.945 102.766Z" fill="#407BFF"/>
<path opacity="0.3" d="M134.945 102.766C135.299 101.92 135.863 101.178 136.583 100.61C137.303 100.042 138.156 99.6671 139.061 99.5201C139.489 98.709 140.115 98.0202 140.883 97.5184C141.65 97.0166 142.533 96.7185 143.447 96.6521C146.633 96.3941 150.341 106.654 145.475 108.442C142.229 112.486 133.691 105.718 134.945 102.766Z" fill="white"/>
<path d="M145.709 108.232H146.075L145.805 108.346L145.859 108.484L145.637 108.514V108.694L145.475 108.658L145.415 108.85L145.289 108.73L145.151 108.964V108.622C145.298 108.444 145.491 108.309 145.709 108.232Z" fill="#263238"/>
<path d="M151.673 95.8481C151.673 95.8481 152.003 94.4081 154.109 93.9821C154.109 93.6041 153.383 93.3821 153.383 93.3821C153.383 93.3821 151.253 94.5761 151.673 95.8481Z" fill="#263238"/>
<path d="M147.077 92.9501C147.994 92.9072 148.906 93.0984 149.728 93.5057C150.55 93.913 151.254 94.523 151.775 95.2781C152.691 95.3165 153.581 95.5873 154.363 96.0649C155.145 96.5425 155.793 97.2112 156.245 98.0081C157.841 100.78 150.167 108.526 146.465 104.896C141.419 103.696 143.885 93.0701 147.077 92.9501Z" fill="#407BFF"/>
<path opacity="0.6" d="M147.077 92.9501C147.994 92.9072 148.906 93.0984 149.728 93.5057C150.55 93.913 151.254 94.523 151.775 95.2781C152.691 95.3165 153.581 95.5873 154.363 96.0649C155.145 96.5425 155.793 97.2112 156.245 98.0081C157.841 100.78 150.167 108.526 146.465 104.896C141.419 103.696 143.885 93.0701 147.077 92.9501Z" fill="white"/>
<path d="M146.747 105.016L146.885 105.352L146.669 105.16L146.567 105.268L146.447 105.082L146.279 105.136L146.237 104.974L146.039 105.004L146.093 104.842H145.823L146.135 104.698C146.365 104.746 146.576 104.856 146.747 105.016Z" fill="#263238"/>
<path d="M133.295 96.5381C133.295 96.5381 134.153 95.3381 133.079 93.4781C133.385 93.2501 134.003 93.6341 134.003 93.6341C134.003 93.6341 134.525 96.0101 133.295 96.5381Z" fill="#263238"/>
<path d="M138.509 98.0621C137.934 97.347 137.187 96.79 136.338 96.4436C135.489 96.0972 134.565 95.9728 133.655 96.0821C133.019 95.4219 132.225 94.9344 131.348 94.6657C130.472 94.397 129.541 94.3558 128.645 94.5461C125.513 95.1821 124.793 106.066 129.965 106.432C134.207 109.42 140.537 100.534 138.509 98.0621Z" fill="#407BFF"/>
<path opacity="0.5" d="M138.509 98.0621C137.934 97.347 137.187 96.79 136.338 96.4436C135.489 96.0972 134.565 95.9728 133.655 96.0821C133.019 95.4219 132.225 94.9344 131.348 94.6657C130.472 94.397 129.541 94.3558 128.645 94.5461C125.513 95.1821 124.793 106.066 129.965 106.432C134.207 109.42 140.537 100.534 138.509 98.0621Z" fill="white"/>
<path d="M129.683 106.318L129.341 106.438L129.629 106.474V106.624L129.851 106.588L129.917 106.75L130.067 106.678L130.175 106.846L130.259 106.696L130.457 106.882L130.361 106.552C130.16 106.414 129.926 106.333 129.683 106.318Z" fill="#263238"/>
<path d="M120.521 96.0521C120.521 96.0521 119.801 94.7621 117.665 94.9361C117.587 94.5581 118.199 94.1681 118.199 94.1681C118.199 94.1681 120.575 94.7141 120.521 96.0521Z" fill="#263238"/>
<path d="M124.132 91.9901C123.24 92.2027 122.416 92.6393 121.739 93.2587C121.062 93.8781 120.554 94.6598 120.262 95.5301C119.394 95.8216 118.614 96.3291 117.996 97.0051C117.378 97.681 116.941 98.5032 116.729 99.3941C115.961 102.502 125.483 107.794 128.039 103.3C132.551 100.75 127.234 91.2221 124.132 91.9901Z" fill="#407BFF"/>
<path opacity="0.7" d="M124.132 91.9901C123.24 92.2027 122.416 92.6393 121.739 93.2587C121.062 93.8781 120.554 94.6598 120.262 95.5301C119.394 95.8216 118.614 96.3291 117.996 97.0051C117.378 97.681 116.941 98.5032 116.729 99.3941C115.961 102.502 125.483 107.794 128.039 103.3C132.551 100.75 127.234 91.2221 124.132 91.9901Z" fill="white"/>
<path d="M127.787 103.492L127.751 103.858L127.907 103.612L128.033 103.684L128.099 103.474H128.279V103.318L128.471 103.288L128.381 103.144L128.627 103.048L128.291 102.994C128.081 103.112 127.907 103.284 127.787 103.492Z" fill="#263238"/>
<path d="M115.811 97.4201V125.62H164.291V97.4201H115.811ZM142.673 103.612C142.466 103.834 142.217 104.012 141.939 104.134C141.661 104.255 141.362 104.319 141.059 104.32H130.859C130.238 104.303 129.649 104.041 129.221 103.591C128.793 103.142 128.56 102.541 128.573 101.92C128.569 101.285 128.81 100.673 129.245 100.21C129.45 99.9873 129.7 99.8094 129.978 99.6876C130.255 99.5658 130.555 99.5026 130.859 99.5021H141.059C141.679 99.5194 142.268 99.7814 142.696 100.231C143.124 100.681 143.357 101.281 143.345 101.902C143.351 102.538 143.11 103.151 142.673 103.612Z" fill="#407BFF"/>
<path opacity="0.3" d="M164.291 97.4201H156.101V125.584H164.291V97.4201Z" fill="black"/>
<path d="M174.443 83.8721C174.779 84.3821 175.043 84.7781 175.295 85.2281C175.547 85.6781 175.805 86.1041 176.051 86.5421C176.543 87.4241 177.011 88.3421 177.467 89.2061C178.364 91.0145 179.165 92.8691 179.867 94.7621C180.219 95.7141 180.549 96.6801 180.857 97.6601C181.151 98.6501 181.415 99.6461 181.655 100.66C182.149 102.737 182.44 104.857 182.525 106.99V107.206V107.554C182.528 107.783 182.516 108.011 182.489 108.238C182.449 108.685 182.369 109.126 182.249 109.558C182.035 110.352 181.701 111.109 181.259 111.802C180.534 112.926 179.625 113.92 178.571 114.742C177.685 115.451 176.735 116.075 175.733 116.608C174.807 117.112 173.856 117.566 172.883 117.97C171.018 118.733 169.104 119.369 167.153 119.872C165.235 120.381 163.287 120.77 161.321 121.036C160.822 121.103 160.317 120.986 159.898 120.707C159.48 120.427 159.177 120.006 159.047 119.52C158.917 119.034 158.968 118.517 159.191 118.067C159.414 117.616 159.794 117.262 160.259 117.07H160.337C163.714 115.732 166.992 114.156 170.147 112.354C171.551 111.562 172.853 110.601 174.023 109.492C174.434 109.109 174.772 108.653 175.019 108.148C175.076 108.03 175.108 107.901 175.115 107.77C175.12 107.744 175.12 107.718 175.115 107.692V107.56C174.612 104.201 173.663 100.924 172.295 97.8161C171.605 96.1961 170.861 94.5881 170.057 93.0161C169.661 92.2181 169.241 91.4321 168.815 90.6581L168.161 89.5061C167.957 89.1341 167.711 88.7201 167.561 88.4261L167.513 88.3421C166.926 87.4096 166.734 86.2824 166.979 85.2083C167.224 84.1343 167.885 83.2015 168.818 82.6151C169.75 82.0287 170.878 81.8368 171.952 82.0815C173.026 82.3262 173.958 82.9876 174.545 83.9201L174.443 83.8721Z" fill="#FF8B7B"/>
<path d="M168.155 76.7561C177.239 78.6041 180.275 89.9561 180.275 89.9561L169.475 98.4821C169.475 98.4821 166.577 95.7221 165.425 88.9601C164.891 85.7441 166.331 76.7561 168.155 76.7561Z" fill="#407BFF"/>
<path d="M161.927 116.764L156.479 115.72L157.079 122.32C157.079 122.32 162.131 122.668 162.749 120.016L161.927 116.764Z" fill="#FF8B7B"/>
<path d="M151.685 118.918L152.285 121.204C152.403 121.645 152.673 122.029 153.048 122.288C153.423 122.548 153.878 122.665 154.331 122.62L157.091 122.35L156.491 115.75L153.095 116.578C152.848 116.638 152.616 116.746 152.411 116.896C152.206 117.046 152.033 117.236 151.901 117.454C151.77 117.671 151.684 117.913 151.647 118.164C151.609 118.416 151.623 118.672 151.685 118.918Z" fill="#FF8B7B"/>
</svg>
