<svg width="159" height="203" viewBox="0 0 159 203" fill="none" xmlns="http://www.w3.org/2000/svg">
<rect x="76.3755" y="5.58398" width="93.75" height="93.75" transform="rotate(45 76.3755 5.58398)" fill="white" stroke="#2A68C1" stroke-width="5" stroke-linejoin="round"/>
<rect x="76.3755" y="62.5923" width="50" height="50" transform="rotate(45 76.3755 62.5923)" fill="#2A68C1" stroke="#2A68C1" stroke-width="5" stroke-linejoin="round"/>
<rect x="76.3755" y="45.3582" width="37.5" height="37.5" transform="rotate(45 76.3755 45.3582)" fill="#85B4F7" stroke="#2A68C1" stroke-width="5" stroke-linejoin="round"/>
<path d="M15.768 164.8H20.412V190H15.768V187.876C14.4 189.628 12.456 190.504 9.936 190.504C7.512 190.504 5.436 189.592 3.708 187.768C2.004 185.92 1.152 183.664 1.152 181C1.152 178.336 2.004 176.092 3.708 174.268C5.436 172.42 7.512 171.496 9.936 171.496C12.456 171.496 14.4 172.372 15.768 174.124V164.8ZM7.2 184.672C8.16 185.608 9.36 186.076 10.8 186.076C12.24 186.076 13.428 185.608 14.364 184.672C15.3 183.712 15.768 182.488 15.768 181C15.768 179.512 15.3 178.3 14.364 177.364C13.428 176.404 12.24 175.924 10.8 175.924C9.36 175.924 8.16 176.404 7.2 177.364C6.264 178.3 5.796 179.512 5.796 181C5.796 182.488 6.264 183.712 7.2 184.672ZM26.9632 169.84C26.1952 169.84 25.5232 169.564 24.9472 169.012C24.3952 168.436 24.1192 167.764 24.1192 166.996C24.1192 166.228 24.3952 165.556 24.9472 164.98C25.5232 164.404 26.1952 164.116 26.9632 164.116C27.7552 164.116 28.4272 164.404 28.9792 164.98C29.5552 165.556 29.8432 166.228 29.8432 166.996C29.8432 167.764 29.5552 168.436 28.9792 169.012C28.4272 169.564 27.7552 169.84 26.9632 169.84ZM24.6592 190V172H29.3032V190H24.6592ZM45.3977 172H50.5097L43.6697 190H38.3777L31.5377 172H36.6497L41.0057 184.6L45.3977 172ZM55.9699 182.908C56.5939 185.164 58.2859 186.292 61.0459 186.292C62.8219 186.292 64.1659 185.692 65.0779 184.492L68.8219 186.652C67.0459 189.22 64.4299 190.504 60.9739 190.504C57.9979 190.504 55.6099 189.604 53.8099 187.804C52.0099 186.004 51.1099 183.736 51.1099 181C51.1099 178.288 51.9979 176.032 53.7739 174.232C55.5499 172.408 57.8299 171.496 60.6139 171.496C63.2539 171.496 65.4259 172.408 67.1299 174.232C68.8579 176.056 69.7219 178.312 69.7219 181C69.7219 181.6 69.6619 182.236 69.5419 182.908H55.9699ZM55.8979 179.308H65.0779C64.8139 178.084 64.2619 177.172 63.4219 176.572C62.6059 175.972 61.6699 175.672 60.6139 175.672C59.3659 175.672 58.3339 175.996 57.5179 176.644C56.7019 177.268 56.1619 178.156 55.8979 179.308ZM82.9718 171.496C84.9398 171.496 86.5598 172.156 87.8318 173.476C89.1278 174.796 89.7758 176.62 89.7758 178.948V190H85.1318V179.524C85.1318 178.324 84.8078 177.412 84.1598 176.788C83.5118 176.14 82.6478 175.816 81.5678 175.816C80.3678 175.816 79.4078 176.188 78.6878 176.932C77.9678 177.676 77.6078 178.792 77.6078 180.28V190H72.9638V172H77.6078V174.016C78.7358 172.336 80.5238 171.496 82.9718 171.496ZM104.037 176.464H99.9692V183.952C99.9692 184.576 100.125 185.032 100.437 185.32C100.749 185.608 101.205 185.776 101.805 185.824C102.405 185.848 103.149 185.836 104.037 185.788V190C100.845 190.36 98.5892 190.06 97.2692 189.1C95.9732 188.14 95.3252 186.424 95.3252 183.952V176.464H92.1932V172H95.3252V168.364L99.9692 166.96V172H104.037V176.464ZM122.085 187.768C120.237 189.592 117.981 190.504 115.317 190.504C112.653 190.504 110.397 189.592 108.549 187.768C106.725 185.92 105.813 183.664 105.813 181C105.813 178.336 106.725 176.092 108.549 174.268C110.397 172.42 112.653 171.496 115.317 171.496C117.981 171.496 120.237 172.42 122.085 174.268C123.933 176.092 124.857 178.336 124.857 181C124.857 183.664 123.933 185.92 122.085 187.768ZM111.825 184.564C112.761 185.5 113.925 185.968 115.317 185.968C116.709 185.968 117.873 185.5 118.809 184.564C119.745 183.628 120.213 182.44 120.213 181C120.213 179.56 119.745 178.372 118.809 177.436C117.873 176.5 116.709 176.032 115.317 176.032C113.925 176.032 112.761 176.5 111.825 177.436C110.913 178.372 110.457 179.56 110.457 181C110.457 182.44 110.913 183.628 111.825 184.564ZM132.768 175.096C133.2 173.944 133.908 173.08 134.892 172.504C135.9 171.928 137.016 171.64 138.24 171.64V176.824C136.824 176.656 135.552 176.944 134.424 177.688C133.32 178.432 132.768 179.668 132.768 181.396V190H128.124V172H132.768V175.096ZM153.079 172H158.047L151.495 190C150.559 192.592 149.311 194.464 147.751 195.616C146.215 196.792 144.295 197.32 141.991 197.2V192.88C143.239 192.904 144.223 192.64 144.943 192.088C145.687 191.536 146.275 190.648 146.707 189.424L139.327 172H144.403L149.083 184.096L153.079 172Z" fill="#2A68C1"/>
</svg>
