<svg width="128" height="25" viewBox="0 0 128 25" fill="none" xmlns="http://www.w3.org/2000/svg">
<rect x="11.5" y="1.89337" width="15" height="15" transform="rotate(45 11.5 1.89337)" fill="white" stroke="#2A68C1" stroke-linejoin="round"/>
<rect x="11.5" y="11.0147" width="8" height="8" transform="rotate(45 11.5 11.0147)" fill="#2A68C1" stroke="#2A68C1" stroke-linejoin="round"/>
<rect x="11.5" y="8.25739" width="6" height="6" transform="rotate(45 11.5 8.25739)" fill="#85B4F7" stroke="#2A68C1" stroke-linejoin="round"/>
<path d="M39.198 4.3H41.907V19H39.198V17.761C38.4 18.783 37.266 19.294 35.796 19.294C34.382 19.294 33.171 18.762 32.163 17.698C31.169 16.62 30.672 15.304 30.672 13.75C30.672 12.196 31.169 10.887 32.163 9.823C33.171 8.745 34.382 8.206 35.796 8.206C37.266 8.206 38.4 8.717 39.198 9.739V4.3ZM34.2 15.892C34.76 16.438 35.46 16.711 36.3 16.711C37.14 16.711 37.833 16.438 38.379 15.892C38.925 15.332 39.198 14.618 39.198 13.75C39.198 12.882 38.925 12.175 38.379 11.629C37.833 11.069 37.14 10.789 36.3 10.789C35.46 10.789 34.76 11.069 34.2 11.629C33.654 12.175 33.381 12.882 33.381 13.75C33.381 14.618 33.654 15.332 34.2 15.892ZM45.7285 7.24C45.2805 7.24 44.8885 7.079 44.5525 6.757C44.2305 6.421 44.0695 6.029 44.0695 5.581C44.0695 5.133 44.2305 4.741 44.5525 4.405C44.8885 4.069 45.2805 3.901 45.7285 3.901C46.1905 3.901 46.5825 4.069 46.9045 4.405C47.2405 4.741 47.4085 5.133 47.4085 5.581C47.4085 6.029 47.2405 6.421 46.9045 6.757C46.5825 7.079 46.1905 7.24 45.7285 7.24ZM44.3845 19V8.5H47.0935V19H44.3845ZM56.482 8.5H59.464L55.474 19H52.387L48.397 8.5H51.379L53.92 15.85L56.482 8.5ZM62.6491 14.863C63.0131 16.179 64.0001 16.837 65.6101 16.837C66.6461 16.837 67.4301 16.487 67.9621 15.787L70.1461 17.047C69.1101 18.545 67.5841 19.294 65.5681 19.294C63.8321 19.294 62.4391 18.769 61.3891 17.719C60.3391 16.669 59.8141 15.346 59.8141 13.75C59.8141 12.168 60.3321 10.852 61.3681 9.802C62.4041 8.738 63.7341 8.206 65.3581 8.206C66.8981 8.206 68.1651 8.738 69.1591 9.802C70.1671 10.866 70.6711 12.182 70.6711 13.75C70.6711 14.1 70.6361 14.471 70.5661 14.863H62.6491ZM62.6071 12.763H67.9621C67.8081 12.049 67.4861 11.517 66.9961 11.167C66.5201 10.817 65.9741 10.642 65.3581 10.642C64.6301 10.642 64.0281 10.831 63.5521 11.209C63.0761 11.573 62.7611 12.091 62.6071 12.763ZM78.4002 8.206C79.5482 8.206 80.4932 8.591 81.2352 9.361C81.9912 10.131 82.3692 11.195 82.3692 12.553V19H79.6602V12.889C79.6602 12.189 79.4712 11.657 79.0932 11.293C78.7152 10.915 78.2112 10.726 77.5812 10.726C76.8812 10.726 76.3212 10.943 75.9012 11.377C75.4812 11.811 75.2712 12.462 75.2712 13.33V19H72.5622V8.5H75.2712V9.676C75.9292 8.696 76.9722 8.206 78.4002 8.206ZM90.6884 11.104H88.3154V15.472C88.3154 15.836 88.4064 16.102 88.5884 16.27C88.7704 16.438 89.0364 16.536 89.3864 16.564C89.7364 16.578 90.1704 16.571 90.6884 16.543V19C88.8264 19.21 87.5104 19.035 86.7404 18.475C85.9844 17.915 85.6064 16.914 85.6064 15.472V11.104H83.7794V8.5H85.6064V6.379L88.3154 5.56V8.5H90.6884V11.104ZM101.216 17.698C100.138 18.762 98.8223 19.294 97.2683 19.294C95.7143 19.294 94.3983 18.762 93.3203 17.698C92.2563 16.62 91.7242 15.304 91.7242 13.75C91.7242 12.196 92.2563 10.887 93.3203 9.823C94.3983 8.745 95.7143 8.206 97.2683 8.206C98.8223 8.206 100.138 8.745 101.216 9.823C102.294 10.887 102.833 12.196 102.833 13.75C102.833 15.304 102.294 16.62 101.216 17.698ZM95.2313 15.829C95.7773 16.375 96.4563 16.648 97.2683 16.648C98.0803 16.648 98.7593 16.375 99.3053 15.829C99.8513 15.283 100.124 14.59 100.124 13.75C100.124 12.91 99.8513 12.217 99.3053 11.671C98.7593 11.125 98.0803 10.852 97.2683 10.852C96.4563 10.852 95.7773 11.125 95.2313 11.671C94.6993 12.217 94.4333 12.91 94.4333 13.75C94.4333 14.59 94.6993 15.283 95.2313 15.829ZM107.448 10.306C107.7 9.634 108.113 9.13 108.687 8.794C109.275 8.458 109.926 8.29 110.64 8.29V11.314C109.814 11.216 109.072 11.384 108.414 11.818C107.77 12.252 107.448 12.973 107.448 13.981V19H104.739V8.5H107.448V10.306ZM119.296 8.5H122.194L118.372 19C117.826 20.512 117.098 21.604 116.188 22.276C115.292 22.962 114.172 23.27 112.828 23.2V20.68C113.556 20.694 114.13 20.54 114.55 20.218C114.984 19.896 115.327 19.378 115.579 18.664L111.274 8.5H114.235L116.965 15.556L119.296 8.5Z" fill="#2A68C1"/>
</svg>
